<svg width="28" height="37" viewBox="0 0 28 37" fill="none" xmlns="http://www.w3.org/2000/svg">
<path d="M27.0899 22.4524V1.21288C27.0899 0.818968 26.7687 0.5 26.3722 0.5C22.9114 0.5 20.106 3.28648 20.106 6.7239V11.3369C17.343 9.82625 13.9907 9.24715 10.4776 10.0313C6.00044 11.0303 1.46528 15.5305 0.458234 19.9775C-1.52531 28.737 5.12745 36.5 13.6054 36.5C21.0613 36.5 27.1055 30.4966 27.1055 23.091C27.1055 22.8767 27.0999 22.6642 27.0899 22.4524ZM13.7226 29.2213C10.2207 29.2858 7.36853 26.4528 7.43338 22.9745C7.49449 19.6963 10.1876 17.0213 13.4882 16.9606C16.9901 16.8962 19.8422 19.7291 19.7774 23.2074C19.7163 26.4857 17.0231 29.1606 13.7226 29.2213Z" fill="white"/>
</svg>
